<svg xmlns="http://www.w3.org/2000/svg" viewBox="0 0 229.957 253.677">
  <defs>
    <style>
      .cls-1 {
        fill: #a9acb2;
      }
    </style>
  </defs>
  <g id="human-2099157" transform="translate(-42.558 -46.904)">
    <path id="Path_2" data-name="Path 2" class="cls-1" d="M590.532,117.257l-.043-.012Z" transform="translate(-461.06 -59.189)"/>
    <circle id="Ellipse_1" data-name="Ellipse 1" class="cls-1" transform="translate(191.236 300.582) rotate(-88.854)"/>
    <path id="Path_3" data-name="Path 3" class="cls-1" d="M201.3,249.522c3.226,4.687,8.717,5.959,14.115,4.954a13.25,13.25,0,0,0,6.569-3.913c.505-.513,3.309-3.312,2.7-.757-.2.852-1.575,1.961-2.162,2.493-.98.889-2.74,1.859-3.506,2.871-.907,1.2.166,3.043,1.2,3.977a5.8,5.8,0,0,0,4.2,1.31c.6.006,3.127-.282,3.427.573.773,2.205-6.042,1.336-7.028.951-2.875-1.124-3.79-3.428-3.587-6.317a23.213,23.213,0,0,1-6.389.658c.777,2.615.937,4.974,2.285,7.4a9.259,9.259,0,0,0,4.953,4.56c5.921,2.434,14.084,1.52,18.911-2.961a6.024,6.024,0,0,1-4.113-3.064c-1.089-1.666-.781-3.79-1.786-5.419q.026-1.28-.961-.589a4.456,4.456,0,0,1-1.09.056,5.375,5.375,0,0,1-2.381-.168c-.478-.226-1.808-1.572-1.261-2,.263-.208,1.862.312,2.245.309a9.064,9.064,0,0,0,1.788-.265,8.159,8.159,0,0,0,2.956-1.173c.634-.426,1.759-1.867,2.578-1.873,1.579-.013.636,1.553.22,2.243-1.322,2.193-2.406,4.141-1.508,6.8A5.043,5.043,0,0,0,235,262.123c.53.48,2.761,2.1,3.321,2.021a7.829,7.829,0,0,0,1.534-1.395c.5-.753.47-.976.188-1.954-.443-1.533-1.137-3.341.014-4.8,1.264.863,1.114,3.51,1.494,4.874a6.9,6.9,0,0,0,1.491,2.758c1.286,1.443,3.036,2.1,4.741,2.884,1.44.666,2.245,1.717.024,1.652a9.127,9.127,0,0,1-6.459-3.816c-1.21,1.226-3.031,1.9-4.4,2.992a26.846,26.846,0,0,1-3.714,2.3c3.729,2.158,5.7,6.028,9.831,7.566,3.353,1.249,6.774,2.113,10.284.871a5.242,5.242,0,0,0,2.96-2.171,15.689,15.689,0,0,1,1.1-2.228,3.423,3.423,0,0,1,.77,2.831c2.483-1.822,4.517-3.307,4.928-6.566.342-2.712-.809-5.246-.955-7.931-1.9,1.246-3.46,2.548-5.617,3.246-1.9.613-1.786-.572-.41-1.468,1.641-1.069,3.364-1.685,4.856-3.038,1.607-1.457,2.16-1.814,2.378-4.067a22.247,22.247,0,0,1-11.847,1.352,9.693,9.693,0,0,1-7.941-8.462c-2.718.574-4.567.641-6.156-1.931-1.423-2.3-1.217-4.585-1.119-7.146a15.3,15.3,0,0,1-10.266,3.171c-3.374-.085-7.061-.349-10.174-1.713s-4.756-4.324-6.128-7.307c-1.788-3.885-3.919-8.229-2.163-12.519a9.519,9.519,0,0,1-7.679-5.292c-.291-.638-.318-2.031-.678-2.5-.448-.581-1.585-.378-2.492-.435-1.122-.071-2.542-.159-2.964-1.4-.156-.459-.084-1.784.446-2.082.778-.437,2.638,1.422,4.017.927,1.672-.6,1.509-2.482,2.842-3.294,1.652-1.008,1.482,1.355,1.227,2.484-.374,1.649-1.887,2.368-1.409,4.033a8.013,8.013,0,0,0,1.4,2.8,9.567,9.567,0,0,0,4.629,2.882c.667.225,2.5.44,2.66,1.314.039.215-.736,1.764-.808,2.233a10.784,10.784,0,0,0-.01,3.641,26.771,26.771,0,0,0,4.419,10.326c1.38,1.862,3.608,2.78,5.773,3.413,4.727,1.382,9.688,1.656,14.16-.548a18.749,18.749,0,0,0,4.833-3.792c.5-.475,1.555-1.646,1.864-.3.166.723-1.259,2.159-1.5,2.844-.692,1.938-.933,5.433.623,7.075,1.4,1.481,3.656.73,5.409,1.154,1.691.409,1.027,2.061,1.529,3.521a8.086,8.086,0,0,0,2.726,3.719c2.352,1.735,6.008,2.1,8.823,1.841,2.687-.244,6.384-2.119,6.955-5.053a4.886,4.886,0,0,0-1.776-4.881c-.146.616-.7,2.255-1.359,2.555-1.3.593-1.148-.7-.891-1.572a55.484,55.484,0,0,1,2.017-5.352,24.594,24.594,0,0,0,1.82-13.3A29.792,29.792,0,0,0,261.7,220.8a18.933,18.933,0,0,0-1.294-2.562c-.344-.507-2.442-2.153-2.441-2.614,0-.655,1.437-.593,1.8-.51,1.257.289,1.427,1.446,2.222,2.291a9.921,9.921,0,0,0,.9-3.837c-.125-1.474-1.09-4.159-2.478-4.931-.853-.474-.45-.3-1.342.034a14.4,14.4,0,0,0-1.807.979,23.506,23.506,0,0,1-4.06,1.752c-.71.236-1.379.371-2.061.648-.512.208-1.28.92-1.874.862-1.341-.131-.563-.936.166-1.458a12.391,12.391,0,0,1,3.024-1.45c5.7-2.149,10.573-5.372,10.577-12,0-4.694.577-10.508-1.162-14.949-.815-2.081-1.66-4.215-2.641-6.222-.79-1.616-2.918-3.786-3.009-5.622.934-.267,2.3,1.061,2.635,1.807,4.751-2.444,4.308-9.3,3.972-13.674a19.143,19.143,0,0,0-1.3-4.623,10.764,10.764,0,0,1-.337-3.235c.027-1.081.833-2.348.732-3.335-.242-2.354-5.179-3.977-7.085-4.566a13.043,13.043,0,0,0-5.987-.48c-2.714.445-5.44,2.337-8.252,1.879-.084-1.233,2.74-1.577,3.51-1.825a32.729,32.729,0,0,1,4.518-1.182,12.616,12.616,0,0,1,5.266-.059,21.124,21.124,0,0,1,4.434,1.685c2.378,1.2,3.237.042,4.513-1.94,2.044-3.175.656-5.286-1.131-8.117a14.819,14.819,0,0,0-3.935-4.476c-.975-.7-2.217-1.136-3.137-1.885-.714-.581-1.718-2.356-.314-2.331.625.011,2.1,1.545,2.628,1.919a40.851,40.851,0,0,1,3.724,2.886,11.557,11.557,0,0,0,.348-8.963c-1.188-3.1-4.015-3.757-6.862-4.751.407.142-.1-.024-.043-.012-5.015-1.439-7.932,3.737-8.342,7.829a4.9,4.9,0,0,1-.531,2.2c-.157.29-.538.188-.7.611-.813,2.074,1.746,3.545,3.389,3.443.308-.019,2.905-.917,2.773.346-.049.465-1.693.519-2.089.586-1.788.3-3.975.687-5.457-.642-1.263-1.133-1.6-4.243-.446-5.627.329-.393,1.1-.511,1.349-.863.358-.5.288-1.672.449-2.254a13.745,13.745,0,0,1,1.525-3.588c-3.487.7-7.2,2.132-8.976,5.475-1.047,1.976-.658,3.81-.4,5.882a17.569,17.569,0,0,1,.391,3.838c-.1.711-.873,1.943-1.711,1.133-.6-.58-.121-4.214-.266-5.188-.087-.584-.052-1.257-.191-1.818-.306-1.236-.612-.72-1.786-.684-.9.028-3.5-.392-2.1-1.234.732-.441,2.157.081,2.979-.209.895-.317.456-.069.9-.72a8.82,8.82,0,0,0,.726-1.625,12.916,12.916,0,0,1-2.108-1.225,19.916,19.916,0,0,0-2.846-1.154,9.526,9.526,0,0,0-6.679.191c-2.48,1.106-4.722,4.187-5.836,6.6-1.207,2.609-.362,4.9.538,7.492.647-.491,8.856-4.9,8.736-2.631-.041.773-2.222.9-2.673,1.067a17.535,17.535,0,0,0-1.641.819c-1.126.575-1.09.582-1.408,1.7-.506,1.78-.656,3.5-3,2.027a16.571,16.571,0,0,0-1.018,5.134c-.052.556-.023,1.6-.94,1.277-.774-.275-.4-2.17-.4-2.826a10.309,10.309,0,0,1,.205-2.266,18.444,18.444,0,0,0,.791-2.5c-.287-.363-2.222.136-2.665.226-3.459.7-4.942,3.067-5.278,6.563-.106,1.105-.009,2.228-.06,3.337-.066,1.431-.369,1.851.63,2.572.721.52.739.081,1.11.92a16.371,16.371,0,0,1,.76,1.981c-.008,1.82-2.4,0-3.339-.306-1.623-.527-3.138,1.707-4.423,2.8a13.4,13.4,0,0,0-4.738,8.517,20.237,20.237,0,0,0,.91,9.635,12.045,12.045,0,0,0,2.5,4.624c.324.329,1.614,1.088.554,1.6-.55.267-1.458-.481-1.87-.838s-.95-1.476-1.444-1.54c-.473-.061-1.766,1.309-2.01,1.6a9.049,9.049,0,0,0-1.847,4.993c-.185,2.641.8,6.019,3.315,7.3a22.061,22.061,0,0,1,2.012-5.586c.593-1.036,2-3.329,3.332-3.537,2.965-.462-.212,1.929-.715,2.514a14.11,14.11,0,0,0-2.556,5.035,9.591,9.591,0,0,0,1.612,8.836c.716.875,2.812,1.809,3.084,2.854.367,1.409-1.639.963-2.455.38a11.929,11.929,0,0,1-2.459-3.074,9.8,9.8,0,0,1-1.207-2.005c-.278-.685-.4-2.777-.725-3.207-.136-.182-1.2-.49-1.493-.722a9.659,9.659,0,0,1-1.435-1.6c-.792-1.006-.743-1.579-1.879-.724-2.055,1.546-4,6.038-3.594,8.6.319,2.033,2.33,3.762,4.057,4.716a13.362,13.362,0,0,0,4.756,1.87c1.059.087,3.263-.9,4.144-.008.47.476.292,1.6.557,2.241a13.932,13.932,0,0,0,1.436,2.274,15.852,15.852,0,0,0,2.917,3.734c2.112,1.724,4.639,1.41,6.859,2.61,2.6,1.407-1.319,1.325-2.278,1.208-6.206-.759-7.5-6.575-11.605-10.126-1.042-.9-1.7-.483-3.049-.64s-2.719-1.185-4.073-1.24c-.923-.038-.814.168-1.469,1.147a14.986,14.986,0,0,0-1.111,1.758,17.087,17.087,0,0,0-1.122,3.472c-1.075,4.758,1.753,10.542,6.386,12.368,1.386.546,1.692.488,1.558,2.036-.138,1.587-.768,2.649-.348,4.306a5.577,5.577,0,0,0,3.618,3.936c1.509.478,3.159,0,4.629.528.042,2.344-7.338.468-8.223-.1-2.359,5.609-.58,10.327,2.729,15.135Zm22.345-89.446c0,1.424-2.16,1.756-3.263,2.559a22.751,22.751,0,0,0-8.623,16.923c-.081,6.538,4.372,12.417,10.239,14.895.515.217,2.564.957,1.771,1.761-.654.665-2.838-.35-3.438-.625a15.373,15.373,0,0,1-4.73-3.524c-.447-.48-1.223-1.939-1.821-2.118-.544-.163-2.422,1.007-2.886,1.337-.869.619-2.537,4.484-3.7,4.019-1.032-.412.493-3.331.95-3.856a8.491,8.491,0,0,1,4.714-2.667c-2.381-2.67-2.8-7.9-2.429-11.238.054-.484.41-1.36.255-1.849-.17-.537-1.555-1.4-2-1.821a10.294,10.294,0,0,0-1.026-.975,6.264,6.264,0,0,0-2.072-.85c-.738-.172-3.188.1-3.261-1.157,3.766-1.143,6.459.291,8.8,3.163a20.79,20.79,0,0,1,1.9-4.873c.595-1.064,2.047-2.059,2.406-3.2.3-.947.2-.539-.56-1.458a10.492,10.492,0,0,1-1.036-1.689,8.924,8.924,0,0,1-.957-1.815c-.361-1.313.2-1.273-1.321-1.4a5.844,5.844,0,0,0-4.109.75c-.64.4-2.428,1.956-2.723.02-.2-1.316,2.76-1.763,3.661-2a14.048,14.048,0,0,1,4.284-.423c.11-1.491-.215-3.6.6-4.95.84-1.383,2.688-3.137,4.338-3.145.039.953-.982,1.409-1.554,2.035a5.683,5.683,0,0,0-1.309,2.658c-.995,3.978.06,6.277,2.053,9.57,1.053-1.3,2.324-2.441,3.3-3.8a3.337,3.337,0,0,0,.827-2.036c0-.573-.321-1.255-.369-1.857-.187-2.352.072-6.185,1.373-8.316.026-.045.058-.1.1-.153,1.622.514.742,2.88.44,3.9a9.992,9.992,0,0,0-.442,3.617c.15,1.552,1.63,3.1,1.631,4.584Zm16.718-8.638c-.485.956-.6,2.56-1.409,3.293-2.064,1.875-.583-3.063-.341-3.754-2.039-.144-3.9-.093-5.634-1.415-.781-.6-.99-1.246-1.8-1.442-.765-.186-1.868.214-2.707.12-1.268-.142-2.489-.419-2.846-1.8-.4-1.539.308-1.032,1.454-.7a19.3,19.3,0,0,0,3.842.564,13.387,13.387,0,0,1,.153-5.322c.459-1.633,3.427-5.14,5.431-4.4-1.083,2.063-2.846,2.675-3.528,5.159-.56,2.043-.7,4.425,1.116,5.861.934.738,3.714,2.167,4.92,2.09.674-.043,2.6-2.526,3.23-2.05C243.187,148.358,240.625,150.928,240.366,151.439Zm17.147,31.915c-.786.1-2.018-1.428-2.624-1.861a9.049,9.049,0,0,0-3.1-1.595c-.96-.217-6.529.763-6.735.205.549-1.2,1.442-.61,2.3-1.13.789-.476.412-.232.7-1.2.127-.429.222-.876.352-1.308a9.466,9.466,0,0,0,.163-5.654,7.947,7.947,0,0,0-1.157-2.721c-.872-1.193-1.542-.7-2.89-.816-1.457-.128-2.73-.889-2.111-2.756,1.065.066,1.869.5,2.962.3a7.889,7.889,0,0,0,2.77-1.332c1.136-.755,2.749-2.577,4.292-2.46-.043-.006-.046-.007.052,0,.354.044.244.032.105.016,2,.307-.955,1.653-1.349,1.95a13.131,13.131,0,0,0-1.647,1.87c-.252.287-1.324,1.236-1.359,1.615-.053.568,1.356,2.1,1.608,2.652a10.28,10.28,0,0,1-.515,9.494c1.958.074,3.641-.067,5.464.892.718.377,4.925,3.55,2.715,3.831Zm-2.571,40.77c-1.444.4-4.228-.935-5.478-1.507a3.6,3.6,0,0,0-2.414-.631,6.469,6.469,0,0,0-1.35.535c-.2.078-.351.243-.555.31a10.005,10.005,0,0,1-3.542.2c-3.095-.133-5.735-.2-8.339-1.959-1.568-1.057-3.475-1.942-2.751-4.276,1.038.13,1.652,1.211,2.335,1.874a7.487,7.487,0,0,0,3.093,1.823c1.957.643,4.675,1.409,6.746.908-1.365-1.527-1.458-3.115-1.328-5.156a4.556,4.556,0,0,1,.551-2.174c.3-.522,2.637-2,2.218-.411.094-.354-.1.486,0,0-.287,1.459-1.049,2.437-.763,3.973a4.447,4.447,0,0,0,.856,2.092c.743.8,1.062.546,2.05.426,1.311-.159,2.593-.39,3.724.462.806.608.958,1.217,2.007,1.587.437.155,5.742,1.153,2.942,1.925Zm-36.288-2.092c.548-2.187.612-5.079,2.553-6.59l.415.659c.006,0,.015.009.027.042,0,.14,0,.223-.009.267-.16,3.02-2.592,6.188-1.75,9.224,1.066,3.847,6.183,3.836,9.045,2.144.818-.484.616-.782,1.464-.368.548.268,1.054,1.014,1.539,1.4a15.207,15.207,0,0,0,7.486,2.831,16.663,16.663,0,0,0,9.186-1.253,12,12,0,0,0,3.317-2.044c.535-.459,1.745-2.115,2.536-1.809,2.749,1.064-4.765,4.815-4.912,5.008a7.134,7.134,0,0,0-.276,3.307c.319,1.414,1.533,1.8,2.666,2.5.772.481,2.518,1.209,1.312,2.008-.9.6-3.486-.08-4.221-.72-1.811-1.578-1.427-4.049-1.179-6.144-5.5,1.512-12.326,1.195-17.33-1.963q-.392-.335-.795-.655-.405-.542-.806.224a5.518,5.518,0,0,0-.789.386,7.009,7.009,0,0,1-3.29.5,7.343,7.343,0,0,1-5.816-2.45c-1.421-1.8-.9-4.4-.37-6.509Zm-.952-20.447c-1.59-.771-3.372-.488-4.953-1.25.881-1.236,4.054-.447,5.2-.1a6.893,6.893,0,0,1,4.8,5.193c2.45-1.043,5.249-2.3,7.977-2.329a15.382,15.382,0,0,1,3.636.727,10.652,10.652,0,0,1,8.638-9.9,16.963,16.963,0,0,1-.35-4.511c-3.385.566-7.573-.341-9.461-3.487a5.628,5.628,0,0,1,1.341-7.482c-1.746-1.727-3.923-5.715-2.164-8.067-2.461-.1-13.694-.479-9.717-5.556,1.638,1.19,2.29,2.477,4.423,3.177,3.284,1.078,5.437.415,8.028-1.895,3.157-2.814,4.178-7.321,7-10.413a10.918,10.918,0,0,1,8.32-3.361c-1.848-.192-.415-2.319.229-3.262.183-.268,2.6-2.822,2.571-1.271a.567.567,0,0,1,0,.077c-.085.377-.1.393-.088.3-.256.715-.788,1.279-1.071,1.985-.275.685-.281,1.48-.612,2.138.84-.036,3.422-.5,4.089.4,1.012,1.353-1.893.82-2.477.789-2.746-.143-6.352.213-8.573,1.949-2.487,1.945-3.88,5.032-5.248,7.776-1.025,2.055-2.461,3.275-3.968,4.911a7.284,7.284,0,0,0-.293,8.663c.806,1.223,1.576,1.775.761,3.215-.93,1.644-1.821,2.59-.918,4.625a4.47,4.47,0,0,0,2,2.224A9.854,9.854,0,0,0,240.673,188a5.239,5.239,0,0,0,1.955.013c.618-.26.85-1.018,1.261-1.6a5.067,5.067,0,0,1,2.4-1.961c.377-.122.886-.442,1.279-.138.767.594-.43,1.425-.929,1.881a6.6,6.6,0,0,0-2.3,3.321c-.386,1.406,0,2.749-.111,4.181a5.2,5.2,0,0,1,5.622,3.683c3.348-1.189,9.087-2.62,10.505,2.246.868,2.977-1.306,1.592-2.367.228-1.285-1.652-2.536-2.8-4.915-2.072-1.014.309-2.4,1.886-3.4,1.841-.881-.039-1.494-1.288-1.932-1.932-1.755-2.579-3.712-3.179-6.614-1.768a10.581,10.581,0,0,0-5.238,7.362,13.738,13.738,0,0,0,.706,6.028c.161.461,1.7,2.578,1.42,3.042-.531.865-2.11-.067-2.449-.574a5.5,5.5,0,0,1-.484-1.762c-.16-.638-.349-1.211-.457-1.872-.113-.69.161-2.5-.234-2.955-.543-.621-3.647-.834-4.561-.772a12.666,12.666,0,0,0-5.156,1.672c-.918.541-1.907,1.969-2.944,1.227-.683-.488-.936-1.966-1.271-2.683a5.9,5.9,0,0,0-2.761-3.058Z" transform="translate(-124.678 -57.883)"/>
    <path id="Path_4" data-name="Path 4" class="cls-1" d="M76.055,225.979c2.683,9.867-3.549,50.125-8.756,74.6H191.228c2.368-16.1,5.365-28.1,9.624-31.812,12.306,0,24.612-.238,36.839-.238,7.81-1.578,12.858-5.13,16.487-11.13,3.629-6.078-.789-14.209-3.077-22.023-1.579-5.052,2.918-9.157,6-12.709,3-3.631-6.233-7.578-3.629-9.63,2.446-1.973,5.127-3.237,5.6-6.394.473-3.71-4.259-5.683-4.338-9.709-.474-2.447-2.6-5.762-1.026-7.736,2.209-2.684,5.837-1.894,9.15-3,3.471-2.131,10.65-4.263,9.545-10.341-1.814-10.1-22.876-31.181-32.027-45.469a22.761,22.761,0,0,0,1.973-12.709C237.138,78.6,200.09,40.78,133.483,47.737,58.051,55.616,24.7,114.991,51.994,183.193c5.365,13.419,19.642,26.049,24.061,42.785Zm99.184-1.674q-15.637.023-31.276,0c-.007-19.266-.01-154.094,0-168.183,13.361-.934,32.169,2.179,46.155,10.39,21.063,12.346,29.137,33.5,28.92,58.243-.585,72.516-43.747,49.981-43.8,99.542Zm-55.931,45q0-5.574,0-11.151,24.956-.006,49.911,0,.007,5.574,0,11.15-24.956.007-49.911,0Zm-3.876-26.466q28.69-.007,57.38,0,.007,5.574,0,11.15-28.69.007-57.379,0-.007-5.575,0-11.15Zm-4.254-3.693q-.006-5.574,0-11.15,32.046-.007,64.091,0,.007,5.574,0,11.15-32.046.007-64.093,0Zm-34.594-45.1a45.1,45.1,0,0,1-2.777-4.128c-2.048-3.051-3.068-5.78-2.646-9.5.126-1.11.435-2.167.588-3.282.149-1.084.821-2.276.763-3.065-.061-.824-.651-1.662-.764-2.523-.14-1.063.625-2.674.3-3.574-.309-.863-2.06-2.114-2.7-2.71a32.708,32.708,0,0,1-2.421-2.505,10.514,10.514,0,0,1-2.533-5.944c-.489-3.958,1.5-7.91,3.942-10.869-2.884-1.586-4.23-3.21-3.712-6.727a21.5,21.5,0,0,1,1.792-5.606,20.4,20.4,0,0,1,2.58-3.76q.481-.29.971-.566-.062-.775-.1-1.552c-.042-.784-.073-1.57-.079-2.355a9.119,9.119,0,0,1,1-4.029,7.352,7.352,0,0,1,2.356-3.149c1.162-.91,1.308-.69.943-2.2a28.68,28.68,0,0,1-1.024-5.59c-.174-4.222-.028-7.579,2.209-11.3,1.424-2.367,3.469-3.8,5.545-5.572,1.915-1.631,2.182-4.134,2.361-6.588.176-2.417.445-5.7,2.05-7.624a5.029,5.029,0,0,1,3.31-1.78c1.273-.194,3.413.366,3.57-1.484.092-1.088-.669-2.472-.688-3.633a10.752,10.752,0,0,1,1.954-6.116c3.481-5.212,8.866-6.973,14.735-4.726.991.379,2.664,1.869,3.716,1.677.973-.177,1.924-1.756,2.818-2.271a16.016,16.016,0,0,1,6.337-2.19,2.685,2.685,0,0,0,1.634-.446,14.382,14.382,0,0,1,1.426-1,10.567,10.567,0,0,1,4.146-.717c1.013-.055,2.463-.357,3.354.3,1.41,1.121,3.467,1.565,4.941,2.76a6.178,6.178,0,0,1,1.832,2.747,14.248,14.248,0,0,1-.142,8.213c-.4,1.022-1.035,1.746-.738,2.667a12.6,12.6,0,0,0,1.177,1.936c.655,1.134,1.418,2.241,1.958,3.435a5.913,5.913,0,0,1,.086,5.092c-.563,1.057-2.315,3.455-3.519,3.795a5.349,5.349,0,0,1,2.329,2.749,5.477,5.477,0,0,1,.228,2.382c-.255.758-.618.529-1.073,1.032-.6.666-.45.66-.212,1.786.191.9.376,1.782.632,2.67a12.766,12.766,0,0,1,.46,1.775,52.227,52.227,0,0,1,.193,8.39c-.08,2.6-1.79,7.646-4.645,8.338.4,1.1,1.1,2.226,1.568,3.325.505,1.187.952,2.384,1.47,3.566a18.713,18.713,0,0,1,.972,2.935,12.887,12.887,0,0,1,.427,2.165c.281,3.2.162,6.464.177,9.669.011,2.392.485,5.135-.562,7.289A13.16,13.16,0,0,1,136.643,149c2.224,2.022,4.075,6.335,3.342,9.311a5.492,5.492,0,0,1-.943,1.821c-.829,1.144-.876,1.22-.4,2.539a41.228,41.228,0,0,1,1.385,4.608,25.3,25.3,0,0,1,.943,6.235c.049,2.689.464,5.566-.465,8.149-.461,1.283-1.639,2.778-1.757,4.094-.129,1.443,1.538,2.9,2.063,4.215a10.812,10.812,0,0,1,.463,4.117c-.081,2.837-1.347,5.4-1.779,8.182-.18,1.16-.781,3-.566,4.172.031.169.634.568.7.763a4.819,4.819,0,0,1,.12,1.209c.058.414.174.818.225,1.23a9.8,9.8,0,0,1-1.573,7.445,8.492,8.492,0,0,1-2.723,2.2,9.837,9.837,0,0,1-1.758.828c-.25.082-1.023-.185-1.1-.146-.67.331-1.221,1.359-1.993,1.769a6.478,6.478,0,0,1-1.466.567,18.7,18.7,0,0,1-7.255.077,26.234,26.234,0,0,1-6.866-2.771,8.482,8.482,0,0,1-3.356-3.014,15.282,15.282,0,0,0-2.242-2.283,14.976,14.976,0,0,0-1.846-1.876c-1.461-.829-4.638.523-6.481.745a14.513,14.513,0,0,1-8.908-1.459c-1.339-.718-2.706-1.112-3.769-2.261-1.4-1.509-1.943-3.484-2.812-5.286-.809-1.68-.374-5.051-1.913-5.864a18.023,18.023,0,0,0-2.094-.651,10.681,10.681,0,0,1-5.24-3.617Z" transform="translate(0 0)"/>
  </g>
</svg>
