<svg xmlns="http://www.w3.org/2000/svg" viewBox="0 0 888.469 1659.253">
  <defs>
    <style>
      .cls-1 {
        fill: #fca311;
      }

      .cls-2 {
        font-size: 43px;
        font-family: SegoeUI-Bold, Segoe UI;
        font-weight: 700;
      }

      .cls-3 {
        fill: #f9f9f9;
      }

      .cls-4 {
        fill: #fff;
      }
    </style>
  </defs>
  <g id="logo1" transform="translate(17.526 220.068)">
    <rect id="Rectangle_6" data-name="Rectangle 6" class="cls-1" width="316" height="1656" transform="translate(-17.526 -106.824) rotate(-21)"/>
    <g id="logo">
      <text id="myQuote" class="cls-2" transform="translate(170.957 196.775)"><tspan x="0" y="0">myQuote</tspan></text>
      <g id="quotation-39627" transform="translate(355.289 -859.856)">
        <path id="Path_1" data-name="Path 1" class="cls-3" d="M10.993,1039.419v-2.872q6.906-3.9,9.06-7.077a12.793,12.793,0,0,0,2.154-7.35,4.944,4.944,0,0,0-.684-2.872,2.11,2.11,0,0,0-1.641-.957,7.389,7.389,0,0,0-2.188.547,8.752,8.752,0,0,1-3.008.547,6.714,6.714,0,0,1-4.923-2.051,6.794,6.794,0,0,1-2.051-4.992,7.634,7.634,0,0,1,2.632-5.743,9.02,9.02,0,0,1,6.393-2.461,11.007,11.007,0,0,1,8.171,3.9,13.819,13.819,0,0,1,3.658,9.846,20.923,20.923,0,0,1-4.615,13.128,24.668,24.668,0,0,1-12.957,8.41Zm32.615,0v-2.872q5.949-3.077,8.581-6.53a12.1,12.1,0,0,0,2.632-7.487,6.027,6.027,0,0,0-.684-3.35,1.918,1.918,0,0,0-1.5-.889,7.494,7.494,0,0,0-2.393.547,8.518,8.518,0,0,1-2.735.547,6.643,6.643,0,0,1-4.889-2.12,6.962,6.962,0,0,1-2.085-5.06,7.555,7.555,0,0,1,2.53-5.675,8.711,8.711,0,0,1,6.222-2.393,11.124,11.124,0,0,1,8.342,4,13.932,13.932,0,0,1,3.692,9.812,20.518,20.518,0,0,1-4.547,12.752q-4.547,5.915-13.162,8.718Z"/>
      </g>
      <g id="quotation-39627-2" data-name="quotation-39627" transform="translate(173.316 1235.701) rotate(180)">
        <path id="Path_1-2" data-name="Path 1" class="cls-4" d="M10.993,1039.419v-2.872q6.906-3.9,9.06-7.077a12.793,12.793,0,0,0,2.154-7.35,4.944,4.944,0,0,0-.684-2.872,2.11,2.11,0,0,0-1.641-.957,7.389,7.389,0,0,0-2.188.547,8.752,8.752,0,0,1-3.008.547,6.714,6.714,0,0,1-4.923-2.051,6.794,6.794,0,0,1-2.051-4.992,7.634,7.634,0,0,1,2.632-5.743,9.02,9.02,0,0,1,6.393-2.461,11.007,11.007,0,0,1,8.171,3.9,13.819,13.819,0,0,1,3.658,9.846,20.923,20.923,0,0,1-4.615,13.128,24.668,24.668,0,0,1-12.957,8.41Zm32.615,0v-2.872q5.949-3.077,8.581-6.53a12.1,12.1,0,0,0,2.632-7.487,6.027,6.027,0,0,0-.684-3.35,1.918,1.918,0,0,0-1.5-.889,7.494,7.494,0,0,0-2.393.547,8.518,8.518,0,0,1-2.735.547,6.643,6.643,0,0,1-4.889-2.12,6.962,6.962,0,0,1-2.085-5.06,7.555,7.555,0,0,1,2.53-5.675,8.711,8.711,0,0,1,6.222-2.393,11.124,11.124,0,0,1,8.342,4,13.932,13.932,0,0,1,3.692,9.812,20.518,20.518,0,0,1-4.547,12.752q-4.547,5.915-13.162,8.718Z"/>
      </g>
    </g>
  </g>
</svg>
