<svg xmlns="http://www.w3.org/2000/svg" viewBox="0 0 375 86">
  <defs>
    <style>
      .cls-1 {
        fill: #fca311;
      }

      .cls-2 {
        font-size: 35px;
        font-family: SegoeUI-Bold, Segoe UI;
        font-weight: 700;
      }

      .cls-3 {
        fill: #f9f9f9;
      }

      .cls-4 {
        fill: #fff;
      }
    </style>
  </defs>
  <g id="logo2" transform="translate(0 -73)">
    <rect id="Rectangle_10" data-name="Rectangle 10" class="cls-1" width="375" height="86" transform="translate(0 73)"/>
    <g id="logo" transform="translate(-52 -64.762)">
      <text id="myQuote" class="cls-2" transform="translate(161.339 187.716)"><tspan x="0" y="0">myQuote</tspan></text>
      <g id="quotation-39627" transform="translate(322.054 144.282)">
        <path id="Path_1" data-name="Path 1" class="cls-3" d="M10.458,1033.663v-2.4q5.779-3.262,7.582-5.923a10.706,10.706,0,0,0,1.8-6.151,4.138,4.138,0,0,0-.572-2.4,1.766,1.766,0,0,0-1.373-.8,6.185,6.185,0,0,0-1.831.458,7.324,7.324,0,0,1-2.518.458,5.619,5.619,0,0,1-4.12-1.717A5.686,5.686,0,0,1,7.711,1011a6.388,6.388,0,0,1,2.2-4.806,7.549,7.549,0,0,1,5.35-2.06A9.212,9.212,0,0,1,22.1,1007.4a11.564,11.564,0,0,1,3.061,8.24,17.51,17.51,0,0,1-3.862,10.986,20.644,20.644,0,0,1-10.843,7.038Zm27.294,0v-2.4a21.066,21.066,0,0,0,7.181-5.465,10.125,10.125,0,0,0,2.2-6.266,5.043,5.043,0,0,0-.572-2.8,1.6,1.6,0,0,0-1.259-.744,6.271,6.271,0,0,0-2,.458,7.129,7.129,0,0,1-2.289.458,5.559,5.559,0,0,1-4.091-1.774,5.826,5.826,0,0,1-1.745-4.234,6.322,6.322,0,0,1,2.117-4.749,7.29,7.29,0,0,1,5.207-2,9.309,9.309,0,0,1,6.981,3.347,11.659,11.659,0,0,1,3.09,8.211,17.171,17.171,0,0,1-3.805,10.672,22,22,0,0,1-11.015,7.3Z" transform="translate(-7.711 -1004.137)"/>
      </g>
      <g id="quotation-39627-2" data-name="quotation-39627" transform="translate(156.86 217.325) rotate(180)">
        <path id="Path_1-2" data-name="Path 1" class="cls-4" d="M2.747,29.526v-2.4q5.779-3.262,7.582-5.923a10.706,10.706,0,0,0,1.8-6.151,4.138,4.138,0,0,0-.572-2.4,1.766,1.766,0,0,0-1.373-.8,6.185,6.185,0,0,0-1.831.458,7.324,7.324,0,0,1-2.518.458,5.619,5.619,0,0,1-4.12-1.717A5.686,5.686,0,0,1,0,6.866,6.388,6.388,0,0,1,2.2,2.06,7.549,7.549,0,0,1,7.553,0a9.212,9.212,0,0,1,6.838,3.262,11.564,11.564,0,0,1,3.061,8.24A17.51,17.51,0,0,1,13.59,22.488,20.644,20.644,0,0,1,2.747,29.526Zm27.294,0v-2.4a21.066,21.066,0,0,0,7.181-5.465,10.125,10.125,0,0,0,2.2-6.266,5.043,5.043,0,0,0-.572-2.8,1.6,1.6,0,0,0-1.259-.744,6.271,6.271,0,0,0-2,.458,7.129,7.129,0,0,1-2.289.458,5.559,5.559,0,0,1-4.091-1.774,5.826,5.826,0,0,1-1.745-4.234A6.322,6.322,0,0,1,29.583,2,7.29,7.29,0,0,1,34.79,0,9.309,9.309,0,0,1,41.77,3.347a11.659,11.659,0,0,1,3.09,8.211,17.171,17.171,0,0,1-3.805,10.672,22,22,0,0,1-11.015,7.3Z" transform="translate(0)"/>
      </g>
    </g>
  </g>
</svg>
