<?xml version="1.0" encoding="UTF-8"?>
<svg viewBox="0 0 114 75" xmlns="http://www.w3.org/2000/svg">
 <g transform="translate(-5.7109 -1002.7)">
  <path d="m14.461 1076.7v-5.9063c9.4687-5.3438 15.68-10.195 18.633-14.555s4.4296-9.3984 4.4297-15.117c-4e-5 -2.625-0.46879-4.5938-1.4062-5.9063-1.0313-1.3125-2.1563-1.9687-3.375-1.9687-0.93753 0-2.4375 0.375-4.5 1.125s-4.125 1.125-6.1875 1.125c-3.9375 0-7.3125-1.4063-10.125-4.2188s-4.2188-6.2344-4.2188-10.266c-1e-5 -4.5 1.8047-8.4375 5.4141-11.812s7.9922-5.0625 13.148-5.0625c6.1875 0 11.789 2.6719 16.805 8.0156s7.5234 12.094 7.5234 20.25c-5e-5 9.8437-3.1641 18.844-9.4922 27s-15.211 13.922-26.648 17.297zm67.078 0v-5.9063c8.1562-4.2188 14.039-8.6953 17.648-13.43s5.414-9.8672 5.4141-15.398c-1e-4 -3.2812-0.46885-5.5781-1.4062-6.8906-0.9376-1.2188-1.9688-1.8281-3.0938-1.8281-1.2188 0-2.8595 0.375-4.9219 1.125-2.1564 0.75-4.0313 1.125-5.625 1.125-3.8438 0-7.1954-1.4532-10.055-4.3594s-4.2891-6.375-4.2891-10.406c-8e-5 -4.5 1.7343-8.3906 5.2031-11.672s7.7343-4.9219 12.797-4.9219c6.3749 0 12.094 2.7422 17.156 8.2265s7.5936 12.211 7.5938 20.18c-1.2e-4 9.375-3.1173 18.117-9.3516 26.227s-15.258 14.086-27.07 17.93z" fill="#b2b7f2"/>
 </g>
</svg>
